<!--?xml version="1.0" standalone="no"?-->

<svg xmlns="http://www.w3.org/2000/svg" width="300.000000pt" height="281.000000pt" viewBox="0 0 300.000000 281.000000" preserveAspectRatio="xMidYMid meet">
<g transform="translate(0.000000,281.000000) scale(0.100000,-0.100000)" fill="#050505" stroke="none">
<path style="position: relative; fill: Olive;" class="node" id="node1" d="M1359 2691 c-100 -27 -186 -77 -265 -156 -77 -75 -110 -131 -143
-239 -81 -262 80 -550 335 -597 128 -24 261 16 339 103 126 140 90 366 -66
412 -83 25 -164 -20 -157 -87 3 -30 9 -35 61 -56 23 -9 27 -16 27 -49 0 -96
-139 -131 -234 -58 -48 36 -86 121 -85 188 3 192 170 330 382 315 104 -7 190
-48 268 -128 221 -224 167 -610 -110 -798 -113 -77 -196 -100 -351 -101 -102
0 -127 5 -290 50 -531 149 -1047 -287 -956 -808 38 -219 181 -399 380 -478 59
-24 89 -29 184 -32 97 -4 123 -1 183 18 231 75 371 287 338 515 -24 172 -159
304 -319 313 -83 5 -138 -10 -192 -51 -62 -47 -88 -98 -88 -173 0 -74 27 -121
82 -142 31 -12 40 -12 65 0 26 12 28 18 28 68 0 50 2 56 28 68 39 19 87 8 120
-26 92 -97 46 -256 -97 -330 -72 -37 -176 -36 -259 2 -156 71 -248 256 -217
434 58 335 436 509 760 349 64 -32 103 -60 161 -117 107 -106 148 -188 193
-383 32 -140 93 -258 190 -364 287 -314 764 -333 1049 -40 280 287 217 758
-124 926 -73 36 -98 44 -167 48 -154 11 -266 -28 -362 -126 -127 -130 -144
-329 -40 -461 90 -114 259 -133 344 -40 31 35 36 47 36 90 0 37 -5 55 -20 70
-26 26 -66 26 -80 0 -7 -14 -21 -20 -45 -20 -68 0 -99 94 -54 166 53 87 194
113 295 54 100 -57 149 -149 149 -280 0 -75 -4 -93 -32 -150 -49 -101 -117
-165 -223 -211 -48 -21 -70 -24 -180 -24 -125 0 -125 0 -205 39 -134 66 -230
179 -285 336 -33 94 -34 248 -1 345 42 126 79 184 181 285 131 130 178 191
227 290 185 377 47 820 -309 994 -132 65 -311 83 -449 47z"></path>
</g>
<g transform="translate(0.000000,281.000000) scale(0.100000,-0.100000)" fill="#9F9F9F" stroke="none">

</g>
</svg>